# xmcd
#
# Track frame offsets:
#	150
#	23222
#	36766
#	56637
#	77047
#	92663
#	107949
#	124512
#	140288
#	157766
#	173102
#
# Disc length: 2523 seconds
#
# Revision: 0
# Processed by: cddbd v1.5.2PL0 Copyright (c) Steve Scherf et al.
# Submitted via: FairStars CD Ripper 1.90
#
DISCID=8209d90b
DTITLE=StoweGood - Beautiful Brokenness
DYEAR=2017
DGENRE=Country
TTITLE0=Beautfiul Brokenness
TTITLE1=Precious Soul
TTITLE2=Nothing Is Impossible
TTITLE3=You Can't Do It Wrong
TTITLE4=Middle of a Miracle
TTITLE5=Beautful Man, Beautiful Boy
TTITLE6=By Yourself
TTITLE7=God Is So Amazing
TTITLE8=Dragged
TTITLE9=You're A Woman
TTITLE10=Give It Away
EXTD=
EXTT0=
EXTT1=
EXTT2=
EXTT3=
EXTT4=
EXTT5=
EXTT6=
EXTT7=
EXTT8=
EXTT9=
EXTT10=
PLAYORDER=
